<?xml version="1.0" standalone="no"?><!DOCTYPE svg PUBLIC "-//W3C//DTD SVG 1.1//EN" "http://www.w3.org/Graphics/SVG/1.1/DTD/svg11.dtd"><svg t="1581075906077" class="icon" viewBox="0 0 1024 1024" version="1.1" xmlns="http://www.w3.org/2000/svg" p-id="2892" xmlns:xlink="http://www.w3.org/1999/xlink" width="200" height="200"><defs><style type="text/css"></style></defs><path d="M909.910569 613.657284l0 310.564221L599.346347 924.221506c-42.8796 0-77.641311-34.761712-77.641311-77.641311L521.705036 613.657284c0-42.8796 34.761712-77.641311 77.641311-77.641311L832.269257 536.015973C875.148857 536.015973 909.910569 570.777685 909.910569 613.657284zM890.499473 633.067356c0-42.881646-34.759665-77.641311-77.641311-77.641311L618.756419 555.426045c-42.8796 0-77.641311 34.759665-77.641311 77.641311l0 194.102766c0 42.8796 34.761712 77.641311 77.641311 77.641311l271.744078 0L890.500497 633.067356zM832.269257 516.605901 599.346347 516.605901c-42.8796 0-77.641311-34.761712-77.641311-77.641311L521.705036 206.04168c0-42.881646 34.761712-77.641311 77.641311-77.641311l310.564221 0 0 310.564221C909.910569 481.84419 875.148857 516.605901 832.269257 516.605901zM890.499473 147.811464 618.756419 147.811464c-42.8796 0-77.641311 34.761712-77.641311 77.641311l0 194.102766c0 42.8796 34.761712 77.641311 77.641311 77.641311l194.102766 0c42.8796 0 77.641311-34.761712 77.641311-77.641311L890.500497 147.811464zM502.294964 613.657284l0 232.92291c0 42.8796-34.761712 77.641311-77.641311 77.641311L114.089431 924.221506 114.089431 613.657284c0-42.8796 34.761712-77.641311 77.641311-77.641311l232.92291 0C467.533252 536.015973 502.294964 570.777685 502.294964 613.657284zM482.884892 633.067356c0-42.881646-34.761712-77.641311-77.641311-77.641311L211.140815 555.426045c-42.881646 0-77.641311 34.759665-77.641311 77.641311l0 271.744078L405.243581 904.811434c42.8796 0 77.641311-34.761712 77.641311-77.641311L482.884892 633.067356zM424.653653 516.605901 191.730743 516.605901c-42.8796 0-77.641311-34.761712-77.641311-77.641311L114.089431 128.400369l310.564221 0c42.8796 0 77.641311 34.761712 77.641311 77.641311l0 232.92291C502.294964 481.84419 467.533252 516.605901 424.653653 516.605901zM482.884892 225.451752c0-42.8796-34.761712-77.641311-77.641311-77.641311L133.499503 147.810441l0 271.744078c0 42.881646 34.759665 77.641311 77.641311 77.641311L405.243581 497.195829c42.8796 0 77.641311-34.759665 77.641311-77.641311L482.884892 225.451752z" p-id="2893"></path></svg>