<?xml version="1.0" standalone="no"?><!DOCTYPE svg PUBLIC "-//W3C//DTD SVG 1.1//EN" "http://www.w3.org/Graphics/SVG/1.1/DTD/svg11.dtd"><svg t="1581075894313" class="icon" viewBox="0 0 1038 1024" version="1.1" xmlns="http://www.w3.org/2000/svg" p-id="2705" xmlns:xlink="http://www.w3.org/1999/xlink" width="202.734375" height="200"><defs><style type="text/css"></style></defs><path d="M166.580282 510.557746a14.422535 14.422535 0 0 1-9.95155-24.80676L486.760563 171.628169a56.536338 56.536338 0 0 1 79.75662 0L889.870423 478.828169a14.422535 14.422535 0 1 1-19.903099 20.912676l-323.64169-307.2a27.835493 27.835493 0 0 0-39.373521 0L176.531831 506.519437a14.422535 14.422535 0 0 1-9.951549 4.038309zM619.447887 855.977465H426.907042a14.422535 14.422535 0 0 1-14.422535-14.422535V600.987042a14.422535 14.422535 0 0 1 14.422535-14.422535h192.540845a14.422535 14.422535 0 0 1 14.422536 14.422535v240.567888a14.422535 14.422535 0 0 1-14.422536 14.422535z m-177.974084-28.845071h163.551549V615.409577H441.329577z" fill="#d81e06" p-id="2706"></path><path d="M779.826479 855.977465H266.528451a14.422535 14.422535 0 0 1-14.422536-14.422535v-432.676057a14.422535 14.422535 0 0 1 28.845071 0v418.253521h484.452958v-418.253521a14.422535 14.422535 0 0 1 28.84507 0v432.676057a14.422535 14.422535 0 0 1-14.422535 14.422535z" fill="#d81e06" p-id="2707"></path></svg>